<svg width="202" height="104" viewBox="0 0 202 104" fill="none" xmlns="http://www.w3.org/2000/svg">
<path fill-rule="evenodd" clip-rule="evenodd" d="M113.953 12.1075C112.282 11.3988 110.312 11.2807 108.521 11.9894C107.387 12.4618 106.372 13.1705 105.656 14.0563C104.88 14.9422 104.343 16.0643 104.104 17.1863C103.985 17.7769 103.865 18.3084 103.626 18.7218C103.388 19.1352 103.089 19.4305 102.492 19.6667L98.9705 21.025C97.8363 21.4974 97.12 20.7297 96.4037 19.962L96.1649 19.7257C94.6129 18.1312 92.5833 17.0092 90.4344 16.5367C88.3452 16.0643 86.0768 16.2414 83.9279 17.0682C81.003 18.1903 78.854 20.3754 77.6602 23.0329C76.526 25.6904 76.3469 28.7023 77.4811 31.5961C78.6153 34.4898 80.8239 36.6159 83.51 37.797C86.1365 38.9191 89.2405 39.0962 92.1655 37.9742C94.3144 37.1474 96.0455 35.73 97.2394 34.0174C98.4929 32.2457 99.2689 30.1197 99.3286 27.9346V27.6393C99.3286 26.5763 99.3883 25.3361 100.463 24.9227L103.925 23.5644C104.522 23.3282 104.999 23.3282 105.477 23.5054C105.954 23.6825 106.492 23.9778 106.969 24.3321C107.924 24.9818 109.059 25.4542 110.252 25.5723C111.387 25.6904 112.58 25.5723 113.715 25.1589C115.565 24.4503 116.878 23.092 117.654 21.4384C118.371 19.7848 118.49 17.8359 117.774 16.0643C116.998 14.1745 115.625 12.8162 113.953 12.1075ZM196.747 38.6828C195.553 39.864 195.553 41.8128 196.747 42.994C197.941 44.1751 199.911 44.1751 201.105 42.994C202.298 41.8128 202.298 39.864 201.105 38.6828C199.911 37.5017 198.001 37.5017 196.747 38.6828ZM128.817 25.0999C130.906 27.1669 134.309 27.2259 136.398 25.1589C138.487 23.092 138.547 19.7257 136.457 17.6588C134.368 15.5918 130.966 15.5327 128.876 17.5997C126.728 19.6076 126.728 22.9739 128.817 25.0999ZM161.648 8.26882C161.648 9.98145 163.021 11.3397 164.692 11.3397C166.423 11.3397 167.796 9.98145 167.796 8.32787C167.796 6.61524 166.423 5.25694 164.752 5.25694C163.021 5.25694 161.648 6.61524 161.648 8.26882ZM161.528 27.5802C161.528 30.5331 163.916 32.8953 166.901 32.8953C169.885 32.8953 172.273 30.5331 172.273 27.5802C172.273 24.6274 169.885 22.2652 166.901 22.2652C163.976 22.3242 161.588 24.6865 161.528 27.5802ZM121.833 9.62711C122.489 11.2807 123.803 12.7571 125.593 13.5248C126.728 13.9973 127.921 14.1745 129.056 14.0563C130.249 13.9382 131.384 13.5248 132.398 12.8752C132.936 12.5209 133.353 12.2256 133.831 12.1075C134.249 11.9894 134.726 11.9894 135.323 12.2256L138.785 13.702C139.92 14.1745 139.92 15.2375 139.86 16.2414V16.5958C139.8 18.8399 140.457 21.025 141.651 22.8557C142.845 24.6274 144.516 26.1629 146.665 27.0487C149.53 28.2889 152.634 28.2299 155.32 27.2259C158.007 26.1629 160.335 24.0959 161.588 21.2612C162.842 18.4265 162.782 15.3556 161.767 12.698C160.693 10.0405 158.603 7.73731 155.738 6.49712C153.649 5.61128 151.44 5.37505 149.291 5.72939C147.142 6.08373 145.113 7.08769 143.441 8.5641L143.262 8.85938C142.486 9.56806 141.531 10.4539 140.457 9.98145L137.054 8.50504C136.517 8.26882 136.159 7.91448 135.92 7.50108C135.681 7.02863 135.562 6.49712 135.443 5.90656C135.264 4.78449 134.786 3.66242 134.01 2.71752C133.294 1.83167 132.398 1.06394 131.264 0.591487C129.473 -0.176245 127.504 -0.176245 125.832 0.473375C124.161 1.12299 122.668 2.42223 121.892 4.19393C121.176 6.02467 121.176 7.91448 121.833 9.62711ZM181.108 12.2846C180.391 10.4539 179.018 9.15466 177.347 8.38693C175.676 7.67825 173.706 7.56014 171.915 8.26882C170.064 8.97749 168.751 10.3358 167.975 11.9894C167.259 13.6429 167.139 15.5918 167.856 17.3635C168.333 18.4856 168.99 19.4305 169.885 20.1982C170.781 20.9659 171.855 21.4974 173.049 21.7337C173.646 21.8518 174.183 22.0289 174.661 22.2652C175.079 22.5014 175.437 22.8557 175.676 23.4463L177.048 26.8716C177.466 27.9346 176.571 28.8204 175.795 29.5882L175.616 29.7653C174.064 31.3008 172.989 33.3087 172.512 35.4347C172.094 37.5017 172.213 39.6868 173.049 41.8128C174.183 44.7066 176.392 46.8326 179.078 48.0138C181.764 49.1358 184.809 49.313 187.733 48.1909C190.658 47.0688 192.807 44.8838 194.001 42.2262C195.135 39.5687 195.314 36.5568 194.18 33.6631C193.345 31.537 191.912 29.7653 190.121 28.5842C188.271 27.344 186.122 26.6353 183.853 26.5763H183.495C182.48 26.5763 181.406 26.5763 180.928 25.3952L179.556 21.9108C179.317 21.3203 179.317 20.8478 179.496 20.4344C179.615 19.962 179.973 19.5486 180.332 19.0171C181.048 18.0722 181.466 16.9501 181.645 15.769C181.704 14.5878 181.585 13.4067 181.108 12.2846ZM5.25296 13.2886C6.44681 12.1075 6.44681 10.1586 5.25296 8.97749C4.0591 7.79636 2.08924 7.79636 0.89539 8.97749C-0.298463 10.1586 -0.298463 12.1075 0.89539 13.2886C2.08924 14.4107 4.0591 14.4697 5.25296 13.2886ZM86.9722 40.5726C85.7784 39.3915 83.8085 39.3915 82.6147 40.5726C81.4208 41.7538 81.4208 43.7026 82.6147 44.8838C83.8085 46.0649 85.7784 46.0649 86.9722 44.8838C88.1661 43.7026 88.1661 41.7538 86.9722 40.5726ZM73.2429 26.8716C71.1537 24.8046 67.7512 24.7455 65.6619 26.8125C63.5727 28.8795 63.513 32.2457 65.6022 34.3127C67.6915 36.3796 71.094 36.4387 73.1832 34.3717C75.2725 32.3048 75.3322 28.9385 73.2429 26.8716ZM40.4119 43.6436C40.4119 41.9309 39.039 40.5726 37.3676 40.5726C35.6365 40.5726 34.2636 41.9309 34.2636 43.5845C34.2636 45.2972 35.6365 46.6555 37.3079 46.6555C38.9793 46.7145 40.4119 45.3562 40.4119 43.6436ZM40.4716 24.3321C40.4716 21.3793 38.0839 19.0171 35.0993 19.0171C32.1147 19.0171 29.727 21.3793 29.727 24.3321C29.727 27.285 32.1147 29.6472 35.0993 29.6472C38.0242 29.6472 40.4716 27.285 40.4716 24.3321ZM116.281 4.66638C114.55 4.66638 113.177 6.02467 113.177 7.67825C113.177 9.39089 114.55 10.7492 116.222 10.7492C117.953 10.7492 119.326 9.39089 119.326 7.73731C119.385 6.02467 118.012 4.66638 116.281 4.66638ZM98.1945 5.72939C95.2098 5.72939 92.8221 8.09165 92.8221 11.0445C92.8221 13.9973 95.2098 16.3595 98.1945 16.3595C101.179 16.3595 103.567 13.9973 103.567 11.0445C103.507 8.1507 101.119 5.72939 98.1945 5.72939ZM80.227 42.3443C79.5703 40.6908 78.2571 39.2143 76.4663 38.4466C75.3322 37.9742 74.1383 37.797 73.0041 37.9151C71.8103 38.0332 70.6761 38.4466 69.6613 39.0962C69.1241 39.4506 68.7063 39.7459 68.2287 39.864C67.8109 39.9821 67.3333 39.9821 66.7364 39.7459L63.2742 38.2695C62.1401 37.797 62.1401 36.734 62.1998 35.73V35.3757C62.2595 33.1315 61.6028 30.9465 60.409 29.1157C59.2151 27.344 57.5437 25.8086 55.3948 24.9227C52.5296 23.6825 49.4255 23.7416 46.7394 24.7455C44.0532 25.8086 41.7252 27.8755 40.4716 30.7102C39.2181 33.5449 39.2778 36.6159 40.2926 39.2734C41.367 41.9309 43.4563 44.2341 46.3215 45.4743C48.4108 46.3602 50.6194 46.5964 52.7683 46.2421C54.9173 45.8877 56.9468 44.8838 58.6182 43.4074L58.7973 43.2302C59.5733 42.5215 60.5284 41.6357 61.5431 42.1081L64.9456 43.5845C65.4829 43.8207 65.841 44.1751 66.0798 44.5885C66.3186 45.0609 66.438 45.5924 66.5573 46.183C66.7364 47.3051 67.214 48.4271 67.99 49.372C68.7063 50.2579 69.6017 51.0256 70.7358 51.4981C72.5266 52.2658 74.4965 52.2658 76.1679 51.6162C77.8392 50.9666 79.3316 49.6673 80.1076 47.8956C80.8836 45.9468 80.8836 43.9979 80.227 42.3443ZM20.8924 39.6277C21.6087 41.4585 22.9817 42.7577 24.6531 43.5255C26.3245 44.2341 28.2943 44.3523 30.0851 43.6436C31.9356 42.9349 33.2488 41.5766 34.0248 39.923C34.7411 38.2694 34.8605 36.3206 34.1442 34.5489C33.6667 33.4268 33.01 32.4819 32.1147 31.7142C31.2193 30.9465 30.1448 30.415 28.9509 30.1787C28.354 30.0606 27.8168 29.8834 27.3392 29.6472C26.9214 29.411 26.5632 29.0567 26.3245 28.4661L24.9515 25.0408C24.5337 23.9778 25.4291 23.092 26.2051 22.3242L26.3842 22.1471C27.9362 20.6116 29.0106 18.6037 29.4882 16.4776C29.906 14.4107 29.7866 12.2256 28.9509 10.0996C27.8168 7.2058 25.6082 5.07977 22.922 3.89864C20.2955 2.77657 17.2512 2.65846 14.3262 3.78053C11.4013 4.9026 9.25236 7.08769 8.05851 9.74522C6.92435 12.3437 6.74527 15.4146 7.87943 18.3084C8.71513 20.4344 10.1478 22.2061 11.9385 23.3872C13.789 24.6274 15.9379 25.3361 18.2063 25.3952H18.5644C19.5792 25.3952 20.6537 25.3952 21.1312 26.5763L22.5041 30.0606C22.7429 30.6512 22.7429 31.1236 22.5638 31.537C22.3848 32.0095 22.0863 32.4229 21.7281 32.9544C21.0118 33.8993 20.594 35.0213 20.4149 36.2025C20.2955 37.3245 20.4746 38.5057 20.8924 39.6277Z" fill="url(#paint0_linear_3522_79503)"/>
<path d="M18.6181 87.8815C18.6181 90.4434 17.1242 92.3292 13.9179 92.3292C11.4768 92.3292 9.36354 91.9378 6.88594 90.0164L4.62695 93.6102C7.25029 95.7095 10.1651 96.4567 13.9544 96.4567C20.5492 96.4567 23.3182 92.009 23.3182 87.9171V87.3834C23.3182 83.2559 20.5492 79.5554 15.4847 79.5554C13.2985 79.5554 11.8047 80.1603 10.6023 80.8719L10.8938 74.1826H21.6058V70.4109H6.70376L5.86575 85.2485H8.99918C10.1651 84.1454 11.7683 83.2203 13.9908 83.2203C16.9056 83.2203 18.6181 84.7503 18.6181 87.4901V87.8815Z" fill="#424251"/>
<path d="M38.6982 79.3775V87.0631H31.1197L42.5968 70.4109H37.5687L25.6179 87.7748V90.7281H38.6982V96.0653H43.289V90.7281H46.8597V87.0631H43.289V79.3775H38.6982Z" fill="#424251"/>
<path d="M50.6168 70.4109V96.0653H59.8349C67.9964 96.0653 71.1663 92.1513 71.1663 85.0706V81.4057C71.1663 74.3249 67.5592 70.4109 59.762 70.4109H50.6168ZM55.2441 74.2537H59.1426C63.9885 74.2537 66.4661 76.1751 66.4661 81.5836V84.8927C66.4661 90.3011 63.8428 92.2225 59.1426 92.2225H55.2441V74.2537Z" fill="#424251"/>
<path d="M76.1286 96.0653H80.5008V76.531C80.8287 77.9898 81.4846 79.3419 82.1404 80.4805L91.1399 96.0653H96.4959V70.4109H92.1237V90.0164C91.7229 88.3441 90.9942 86.9208 90.4476 85.9601L81.4846 70.4109H76.1286V96.0653Z" fill="#424251"/>
<path d="M114.047 70.4109H109.857L100.092 96.0653H104.865L107.452 89.0201H116.306L118.856 96.0653H123.921L114.047 70.4109ZM110.586 79.9824C111.241 78.1677 111.46 77.4561 111.861 76.0328C112.225 77.2782 112.553 78.2745 113.172 79.9824L114.958 85.2129H108.8L110.586 79.9824Z" fill="#424251"/>
<path d="M129.037 90.7281C129.037 94.8911 130.677 96.2432 134.102 96.2432C135.159 96.2432 136.652 96.0653 137.418 95.7807L137.053 93.7881C136.142 94.0372 135.268 94.1439 134.284 94.1439C132.317 94.1439 131.515 93.2188 131.515 90.6213V78.9505H136.944V76.8868H131.515V71.9409H129.037V76.8868H125.685V78.9505H129.037V90.7281Z" fill="#424251"/>
<path d="M139.337 76.8868L146.697 96.3856L144.183 103.253L146.297 104L156.498 76.8868H153.948L147.973 93.3611L141.888 76.8868H139.337Z" fill="#424251"/>
<path d="M162.507 93.7881C163.564 95.1402 165.567 96.35 168.337 96.35C172.818 96.35 176.134 93.3611 176.134 88.1306V84.7503C176.134 79.5198 173 76.531 168.337 76.531C165.895 76.531 163.6 77.6696 162.434 79.591V76.8868H159.993V103.68H162.47V93.7881H162.507ZM173.656 87.7748C173.656 91.8311 171.506 94.2151 168.191 94.2151C164.839 94.2151 162.47 91.9378 162.47 89.6962V84.0743C162.47 80.694 165.495 78.737 168.191 78.737C171.543 78.737 173.656 81.0143 173.656 85.1062V87.7748Z" fill="#424251"/>
<path d="M182.481 85.2129V84.8927C182.481 81.121 184.522 78.6659 187.983 78.6659C191.408 78.6659 193.412 80.9075 193.412 84.8927V85.2129H182.481ZM194.359 92.3292C192.938 93.3255 190.971 94.2151 188.347 94.2151C184.74 94.2151 182.481 91.7955 182.481 87.5613V87.2411H195.89V85.2485C195.89 79.8756 193.084 76.531 187.983 76.531C183.064 76.531 180.004 79.7333 180.004 85.1773V87.5613C180.004 93.1476 183.101 96.35 188.311 96.35C191.627 96.35 193.886 95.247 195.452 94.1795L194.359 92.3292Z" fill="#424251"/>
<defs>
<linearGradient id="paint0_linear_3522_79503" x1="0" y1="25.9691" x2="202.03" y2="25.9691" gradientUnits="userSpaceOnUse">
<stop stop-color="#9D01CD"/>
<stop offset="0.1052" stop-color="#B501AC"/>
<stop offset="0.2958" stop-color="#D0018A"/>
<stop offset="0.390625" stop-color="#FA7261"/>
<stop offset="0.489583" stop-color="#F49301"/>
<stop offset="0.645833" stop-color="#FBE41A"/>
<stop offset="0.760417" stop-color="#76D200"/>
<stop offset="0.869792" stop-color="#0158D6"/>
<stop offset="1" stop-color="#2A22B3"/>
</linearGradient>
</defs>
</svg>
